<svg width="24" height="24" viewBox="0 0 24 24" fill="none" xmlns="http://www.w3.org/2000/svg">
<g filter="url(#filter0_n_164_22)">
<path d="M12.0008 5.00005C12.002 4.60008 11.9232 4.20391 11.769 3.83485C11.6148 3.46579 11.3884 3.13128 11.1031 2.851C10.8177 2.57072 10.4792 2.35032 10.1075 2.20278C9.7357 2.05524 9.33819 1.98353 8.9383 1.99186C8.53842 2.0002 8.14424 2.08841 7.77894 2.25132C7.41365 2.41422 7.08462 2.64853 6.81121 2.94045C6.53779 3.23238 6.32552 3.57604 6.18686 3.9512C6.0482 4.32637 5.98596 4.72548 6.00381 5.12505C5.41601 5.27619 4.87031 5.5591 4.40804 5.95236C3.94577 6.34562 3.57905 6.83892 3.33565 7.3949C3.09225 7.95087 2.97857 8.55494 3.0032 9.16136C3.02782 9.76778 3.19013 10.3606 3.47781 10.8951C2.97199 11.306 2.57423 11.8343 2.31915 12.434C2.06406 13.0337 1.95936 13.6866 2.01417 14.336C2.06898 14.9854 2.28162 15.6116 2.63361 16.1601C2.9856 16.7085 3.46627 17.1627 4.03381 17.4831C3.96372 18.0253 4.00555 18.5761 4.15669 19.1016C4.30784 19.627 4.5651 20.1159 4.91259 20.538C5.26008 20.9601 5.69042 21.3065 6.17703 21.5558C6.66364 21.8051 7.19618 21.952 7.74178 21.9874C8.28738 22.0228 8.83445 21.946 9.34919 21.7617C9.86394 21.5774 10.3354 21.2895 10.7346 20.9158C11.1337 20.5421 11.452 20.0906 11.6698 19.5891C11.8876 19.0876 12.0002 18.5468 12.0008 18V5.00005Z" stroke="black" stroke-width="1.5" stroke-linecap="round" stroke-linejoin="round"/>
<path d="M9 13C9.83956 12.7047 10.5727 12.167 11.1067 11.455C11.6407 10.743 11.9515 9.88867 12 9" stroke="black" stroke-width="1.5" stroke-linecap="round" stroke-linejoin="round"/>
<path d="M6.00391 5.125C6.02368 5.60873 6.16024 6.0805 6.40191 6.5" stroke="black" stroke-width="1.5" stroke-linecap="round" stroke-linejoin="round"/>
<path d="M3.47656 10.896C3.6595 10.747 3.85527 10.6145 4.06156 10.5" stroke="black" stroke-width="1.5" stroke-linecap="round" stroke-linejoin="round"/>
<path d="M6.0002 17.9999C5.31103 18.0002 4.63347 17.8225 4.0332 17.4839" stroke="black" stroke-width="1.5" stroke-linecap="round" stroke-linejoin="round"/>
<path d="M12 13H16" stroke="black" stroke-width="1.5" stroke-linecap="round" stroke-linejoin="round"/>
<path d="M12 18H18C18.5304 18 19.0391 18.2107 19.4142 18.5858C19.7893 18.9609 20 19.4696 20 20V21" stroke="black" stroke-width="1.5" stroke-linecap="round" stroke-linejoin="round"/>
<path d="M12 8H20" stroke="black" stroke-width="1.5" stroke-linecap="round" stroke-linejoin="round"/>
<path d="M16 8V5C16 4.46957 16.2107 3.96086 16.5858 3.58579C16.9609 3.21071 17.4696 3 18 3" stroke="black" stroke-width="1.5" stroke-linecap="round" stroke-linejoin="round"/>
<path d="M16 13.5C16.2761 13.5 16.5 13.2761 16.5 13C16.5 12.7239 16.2761 12.5 16 12.5C15.7239 12.5 15.5 12.7239 15.5 13C15.5 13.2761 15.7239 13.5 16 13.5Z" stroke="black" stroke-width="1.5" stroke-linecap="round" stroke-linejoin="round"/>
<path d="M18 3.5C18.2761 3.5 18.5 3.27614 18.5 3C18.5 2.72386 18.2761 2.5 18 2.5C17.7239 2.5 17.5 2.72386 17.5 3C17.5 3.27614 17.7239 3.5 18 3.5Z" stroke="black" stroke-width="1.5" stroke-linecap="round" stroke-linejoin="round"/>
<path d="M20 21.5C20.2761 21.5 20.5 21.2761 20.5 21C20.5 20.7239 20.2761 20.5 20 20.5C19.7239 20.5 19.5 20.7239 19.5 21C19.5 21.2761 19.7239 21.5 20 21.5Z" stroke="black" stroke-width="1.5" stroke-linecap="round" stroke-linejoin="round"/>
<path d="M20 8.5C20.2761 8.5 20.5 8.27614 20.5 8C20.5 7.72386 20.2761 7.5 20 7.5C19.7239 7.5 19.5 7.72386 19.5 8C19.5 8.27614 19.7239 8.5 20 8.5Z" stroke="black" stroke-width="1.5" stroke-linecap="round" stroke-linejoin="round"/>
</g>
<defs>
<filter id="filter0_n_164_22" x="0" y="0" width="24" height="24" filterUnits="userSpaceOnUse" color-interpolation-filters="sRGB">
<feFlood flood-opacity="0" result="BackgroundImageFix"/>
<feBlend mode="normal" in="SourceGraphic" in2="BackgroundImageFix" result="shape"/>
<feTurbulence type="fractalNoise" baseFrequency="9.0909090042114258 9.0909090042114258" stitchTiles="stitch" numOctaves="3" result="noise" seed="9537" />
<feComponentTransfer in="noise" result="coloredNoise1">
<feFuncR type="linear" slope="2" intercept="-0.5" />
<feFuncG type="linear" slope="2" intercept="-0.5" />
<feFuncB type="linear" slope="2" intercept="-0.5" />
<feFuncA type="discrete" tableValues="1 1 1 1 1 1 1 1 1 1 1 1 1 1 1 1 1 1 1 1 1 1 1 1 1 1 1 1 1 1 1 1 1 1 1 1 1 1 1 1 1 1 1 1 1 1 1 1 1 1 1 0 0 0 0 0 0 0 0 0 0 0 0 0 0 0 0 0 0 0 0 0 0 0 0 0 0 0 0 0 0 0 0 0 0 0 0 0 0 0 0 0 0 0 0 0 0 0 0 0 "/>
</feComponentTransfer>
<feComposite operator="in" in2="shape" in="coloredNoise1" result="noise1Clipped" />
<feComponentTransfer in="noise1Clipped" result="color1">
<feFuncA type="table" tableValues="0 0.05" />
</feComponentTransfer>
<feMerge result="effect1_noise_164_22">
<feMergeNode in="shape" />
<feMergeNode in="color1" />
</feMerge>
</filter>
</defs>
</svg>
